<svg xmlns="http://www.w3.org/2000/svg" xmlns:xlink="http://www.w3.org/1999/xlink" width="100" zoomAndPan="magnify" viewBox="0 0 75 74.999997" height="100" preserveAspectRatio="xMidYMid meet" version="1.0"><defs><clipPath id="b06768efc5"><path d="M 55 1.019531 L 69.464844 1.019531 L 69.464844 16 L 55 16 Z M 55 1.019531 " clip-rule="nonzero"/></clipPath><clipPath id="4cf54d9c31"><path d="M 15 1.019531 L 69.464844 1.019531 L 69.464844 73.769531 L 15 73.769531 Z M 15 1.019531 " clip-rule="nonzero"/></clipPath><clipPath id="7a4f354e21"><path d="M 56 15 L 69.464844 15 L 69.464844 18 L 56 18 Z M 56 15 " clip-rule="nonzero"/></clipPath><clipPath id="76422341ed"><path d="M 5.714844 4 L 49 4 L 49 24 L 5.714844 24 Z M 5.714844 4 " clip-rule="nonzero"/></clipPath></defs><g clip-path="url(#b06768efc5)"><path fill="#59caff" d="M 55.296875 1.019531 L 69.457031 15.101562 L 55.296875 15.101562 Z M 55.296875 1.019531 " fill-opacity="1" fill-rule="nonzero"/></g><g clip-path="url(#4cf54d9c31)"><path fill="#0096dc" d="M 69.457031 15.101562 L 69.457031 73.769531 L 15.167969 73.769531 L 15.167969 1.019531 L 55.296875 1.019531 L 55.296875 15.101562 Z M 69.457031 15.101562 " fill-opacity="1" fill-rule="nonzero"/></g><path fill="#006bc0" d="M 17.527344 10.40625 L 17.527344 66.730469 C 17.527344 67.039062 17.558594 67.34375 17.617188 67.644531 C 17.679688 67.945312 17.769531 68.242188 17.886719 68.523438 C 18.003906 68.808594 18.148438 69.082031 18.324219 69.335938 C 18.496094 69.59375 18.691406 69.828125 18.910156 70.046875 C 19.128906 70.265625 19.367188 70.460938 19.625 70.632812 C 19.882812 70.804688 20.15625 70.949219 20.441406 71.066406 C 20.726562 71.183594 21.023438 71.273438 21.328125 71.332031 C 21.632812 71.390625 21.9375 71.421875 22.246094 71.421875 L 62.375 71.421875 C 62.6875 71.421875 62.992188 71.390625 63.296875 71.332031 C 63.601562 71.273438 63.898438 71.183594 64.183594 71.066406 C 64.46875 70.949219 64.742188 70.804688 65 70.632812 C 65.257812 70.460938 65.496094 70.265625 65.714844 70.046875 C 65.933594 69.828125 66.128906 69.59375 66.300781 69.335938 C 66.472656 69.082031 66.621094 68.808594 66.738281 68.523438 C 66.855469 68.242188 66.945312 67.945312 67.007812 67.644531 C 67.066406 67.34375 67.097656 67.039062 67.097656 66.730469 L 67.097656 64.238281 C 17.527344 61.203125 17.527344 10.40625 17.527344 10.40625 Z M 17.527344 10.40625 " fill-opacity="1" fill-rule="nonzero"/><g clip-path="url(#7a4f354e21)"><path fill="#005599" d="M 56.476562 15.101562 L 69.457031 15.101562 L 69.457031 17.445312 L 56.476562 17.445312 Z M 56.476562 15.101562 " fill-opacity="1" fill-rule="nonzero"/></g><g clip-path="url(#76422341ed)"><path fill="#006bc0" d="M 5.722656 4.539062 L 48.214844 4.539062 L 48.214844 23.3125 L 5.722656 23.3125 Z M 5.722656 4.539062 " fill-opacity="1" fill-rule="nonzero"/></g><path fill="#005599" d="M 15.167969 23.3125 L 45.851562 23.3125 L 45.851562 26.832031 L 15.167969 26.832031 Z M 15.167969 23.3125 " fill-opacity="1" fill-rule="nonzero"/><path fill="#ffffff" d="M 34.050781 60.863281 L 32.871094 60.863281 C 32.484375 60.863281 32.097656 60.824219 31.71875 60.75 C 31.339844 60.671875 30.972656 60.5625 30.613281 60.414062 C 30.253906 60.265625 29.914062 60.085938 29.59375 59.871094 C 29.269531 59.65625 28.972656 59.414062 28.699219 59.140625 C 28.425781 58.871094 28.179688 58.574219 27.964844 58.253906 C 27.75 57.933594 27.570312 57.59375 27.421875 57.238281 C 27.273438 56.882812 27.160156 56.515625 27.082031 56.140625 C 27.007812 55.761719 26.96875 55.378906 26.96875 54.996094 L 26.96875 51.476562 C 26.917969 51.320312 26.667969 51.179688 26.484375 51.074219 C 25.921875 50.773438 25.410156 50.398438 24.949219 49.957031 C 24.839844 49.847656 24.753906 49.722656 24.695312 49.578125 C 24.636719 49.433594 24.605469 49.285156 24.605469 49.128906 C 24.605469 48.972656 24.636719 48.824219 24.695312 48.679688 C 24.753906 48.535156 24.839844 48.410156 24.949219 48.296875 C 25.410156 47.855469 25.921875 47.484375 26.484375 47.183594 C 26.65625 47.09375 26.816406 46.988281 26.96875 46.867188 L 26.96875 43.261719 C 26.96875 42.875 27.007812 42.496094 27.082031 42.117188 C 27.160156 41.738281 27.273438 41.371094 27.421875 41.015625 C 27.570312 40.660156 27.75 40.324219 27.964844 40.003906 C 28.179688 39.683594 28.425781 39.386719 28.699219 39.113281 C 28.972656 38.84375 29.269531 38.597656 29.59375 38.386719 C 29.914062 38.171875 30.253906 37.992188 30.613281 37.84375 C 30.972656 37.695312 31.339844 37.582031 31.71875 37.507812 C 32.097656 37.433594 32.484375 37.394531 32.871094 37.394531 L 34.050781 37.394531 L 34.050781 39.742188 L 32.871094 39.742188 C 32.402344 39.742188 31.949219 39.832031 31.515625 40.007812 C 31.082031 40.1875 30.699219 40.441406 30.367188 40.773438 C 30.035156 41.101562 29.777344 41.484375 29.597656 41.914062 C 29.417969 42.34375 29.328125 42.792969 29.328125 43.261719 L 29.328125 46.78125 C 29.332031 47.285156 29.195312 47.75 28.921875 48.175781 C 28.648438 48.601562 28.28125 48.917969 27.816406 49.128906 C 28.28125 49.339844 28.648438 49.65625 28.921875 50.082031 C 29.195312 50.503906 29.332031 50.96875 29.328125 51.476562 L 29.328125 54.996094 C 29.328125 55.460938 29.417969 55.910156 29.597656 56.34375 C 29.777344 56.773438 30.035156 57.152344 30.367188 57.484375 C 30.699219 57.8125 31.082031 58.070312 31.515625 58.246094 C 31.949219 58.425781 32.402344 58.515625 32.871094 58.515625 L 34.050781 58.515625 Z M 34.050781 60.863281 " fill-opacity="1" fill-rule="nonzero"/><path fill="#ffffff" d="M 51.753906 60.863281 L 50.574219 60.863281 L 50.574219 58.515625 L 51.753906 58.515625 C 52.222656 58.515625 52.675781 58.425781 53.109375 58.246094 C 53.542969 58.070312 53.925781 57.8125 54.257812 57.484375 C 54.589844 57.152344 54.847656 56.773438 55.027344 56.34375 C 55.207031 55.910156 55.296875 55.460938 55.296875 54.996094 L 55.296875 51.476562 C 55.292969 50.96875 55.429688 50.503906 55.703125 50.082031 C 55.976562 49.65625 56.34375 49.339844 56.808594 49.128906 C 56.34375 48.917969 55.976562 48.601562 55.703125 48.175781 C 55.429688 47.75 55.292969 47.285156 55.296875 46.78125 L 55.296875 43.261719 C 55.296875 42.792969 55.207031 42.34375 55.027344 41.914062 C 54.847656 41.484375 54.589844 41.101562 54.257812 40.773438 C 53.925781 40.441406 53.542969 40.1875 53.109375 40.007812 C 52.675781 39.832031 52.222656 39.742188 51.753906 39.742188 L 50.574219 39.742188 L 50.574219 37.394531 L 51.753906 37.394531 C 52.140625 37.394531 52.523438 37.433594 52.90625 37.507812 C 53.285156 37.582031 53.652344 37.695312 54.011719 37.84375 C 54.371094 37.992188 54.710938 38.171875 55.03125 38.386719 C 55.351562 38.597656 55.652344 38.84375 55.925781 39.113281 C 56.199219 39.386719 56.445312 39.683594 56.660156 40.003906 C 56.875 40.324219 57.054688 40.660156 57.203125 41.015625 C 57.351562 41.371094 57.464844 41.738281 57.542969 42.117188 C 57.617188 42.496094 57.65625 42.875 57.65625 43.261719 L 57.65625 46.78125 C 57.707031 46.933594 57.957031 47.078125 58.140625 47.183594 C 58.703125 47.484375 59.214844 47.855469 59.675781 48.296875 C 59.785156 48.410156 59.871094 48.535156 59.929688 48.679688 C 59.988281 48.824219 60.019531 48.972656 60.019531 49.128906 C 60.019531 49.285156 59.988281 49.433594 59.929688 49.578125 C 59.871094 49.722656 59.785156 49.847656 59.675781 49.957031 C 59.214844 50.398438 58.703125 50.773438 58.140625 51.074219 C 57.964844 51.160156 57.804688 51.265625 57.652344 51.386719 L 57.65625 54.996094 C 57.65625 55.378906 57.617188 55.761719 57.542969 56.140625 C 57.464844 56.515625 57.351562 56.882812 57.203125 57.238281 C 57.054688 57.59375 56.875 57.933594 56.660156 58.253906 C 56.445312 58.574219 56.199219 58.871094 55.925781 59.140625 C 55.652344 59.414062 55.351562 59.65625 55.03125 59.871094 C 54.710938 60.085938 54.371094 60.265625 54.011719 60.414062 C 53.652344 60.5625 53.285156 60.671875 52.90625 60.75 C 52.523438 60.824219 52.140625 60.863281 51.753906 60.863281 Z M 51.753906 60.863281 " fill-opacity="1" fill-rule="nonzero"/><path fill="#005599" d="M 55.296875 59.6875 C 54.738281 60.425781 54.042969 61.003906 53.210938 61.414062 C 52.382812 61.828125 51.503906 62.035156 50.574219 62.035156 L 49.394531 62.035156 L 49.394531 59.6875 L 50.574219 59.6875 L 50.574219 60.863281 L 51.753906 60.863281 C 53.066406 60.867188 54.246094 60.476562 55.296875 59.6875 Z M 55.296875 59.6875 " fill-opacity="1" fill-rule="nonzero"/><path fill="#005599" d="M 55.542969 50.347656 C 55.371094 50.703125 55.285156 51.078125 55.296875 51.476562 L 55.296875 54.996094 C 55.292969 55.609375 55.140625 56.183594 54.839844 56.71875 C 54.535156 57.25 54.121094 57.679688 53.59375 58 C 53.941406 57.4375 54.113281 56.828125 54.113281 56.167969 L 54.113281 52.648438 C 54.109375 52.160156 54.238281 51.707031 54.496094 51.292969 C 54.753906 50.878906 55.101562 50.5625 55.542969 50.347656 Z M 55.542969 50.347656 " fill-opacity="1" fill-rule="nonzero"/><path fill="#005599" d="M 58.765625 50.6875 C 58.714844 50.859375 58.621094 51.007812 58.492188 51.132812 C 58.234375 51.390625 57.957031 51.621094 57.65625 51.828125 L 57.65625 51.394531 C 57.804688 51.269531 57.964844 51.164062 58.140625 51.074219 C 58.355469 50.960938 58.566406 50.832031 58.765625 50.6875 Z M 58.765625 50.6875 " fill-opacity="1" fill-rule="nonzero"/><path fill="#005599" d="M 56.804688 49.128906 C 56.285156 49.394531 55.878906 49.777344 55.578125 50.277344 C 55.128906 50.0625 54.773438 49.746094 54.507812 49.328125 C 54.246094 48.90625 54.113281 48.449219 54.113281 47.953125 L 54.113281 44.433594 C 54.113281 43.96875 54.023438 43.519531 53.84375 43.089844 C 53.664062 42.660156 53.40625 42.277344 53.074219 41.949219 C 52.742188 41.617188 52.359375 41.363281 51.925781 41.183594 C 51.496094 41.007812 51.042969 40.914062 50.574219 40.914062 L 49.394531 40.914062 L 49.394531 38.566406 L 50.574219 38.566406 L 50.574219 39.742188 L 51.753906 39.742188 C 52.222656 39.742188 52.675781 39.832031 53.109375 40.011719 C 53.539062 40.191406 53.921875 40.445312 54.253906 40.773438 C 54.585938 41.105469 54.84375 41.484375 55.023438 41.914062 C 55.203125 42.347656 55.292969 42.796875 55.296875 43.261719 L 55.296875 46.78125 C 55.292969 47.285156 55.429688 47.75 55.703125 48.175781 C 55.976562 48.601562 56.34375 48.917969 56.804688 49.128906 Z M 56.804688 49.128906 " fill-opacity="1" fill-rule="nonzero"/><path fill="#005599" d="M 32.871094 60.863281 L 32.871094 62.035156 L 31.691406 62.035156 C 31.300781 62.035156 30.917969 61.996094 30.539062 61.921875 C 30.160156 61.847656 29.789062 61.738281 29.429688 61.589844 C 29.074219 61.441406 28.734375 61.261719 28.410156 61.046875 C 28.089844 60.832031 27.792969 60.589844 27.515625 60.316406 C 27.242188 60.042969 27 59.75 26.785156 59.429688 C 26.566406 59.109375 26.386719 58.769531 26.238281 58.414062 C 26.089844 58.058594 25.976562 57.691406 25.902344 57.3125 C 25.828125 56.933594 25.789062 56.554688 25.789062 56.167969 L 25.789062 52.648438 C 25.742188 52.496094 25.480469 52.355469 25.304688 52.25 C 24.742188 51.945312 24.230469 51.574219 23.769531 51.132812 C 23.660156 51.023438 23.574219 50.894531 23.515625 50.753906 C 23.457031 50.609375 23.425781 50.457031 23.425781 50.300781 C 23.425781 50.144531 23.457031 49.996094 23.515625 49.851562 C 23.574219 49.707031 23.660156 49.578125 23.769531 49.46875 C 24.050781 49.199219 24.355469 48.957031 24.679688 48.742188 C 24.601562 48.953125 24.585938 49.167969 24.636719 49.390625 C 24.683594 49.613281 24.789062 49.800781 24.949219 49.960938 C 25.410156 50.402344 25.921875 50.773438 26.484375 51.074219 C 26.660156 51.183594 26.921875 51.324219 26.96875 51.476562 L 26.96875 54.996094 C 26.96875 55.378906 27.007812 55.761719 27.082031 56.140625 C 27.15625 56.519531 27.269531 56.882812 27.417969 57.242188 C 27.566406 57.597656 27.75 57.933594 27.964844 58.253906 C 28.179688 58.574219 28.421875 58.871094 28.699219 59.144531 C 28.972656 59.417969 29.269531 59.660156 29.589844 59.875 C 29.914062 60.085938 30.253906 60.269531 30.613281 60.414062 C 30.96875 60.5625 31.339844 60.675781 31.71875 60.75 C 32.097656 60.824219 32.484375 60.863281 32.871094 60.863281 Z M 32.871094 60.863281 " fill-opacity="1" fill-rule="nonzero"/><path fill="#005599" d="M 28.148438 39.742188 C 27.355469 40.78125 26.964844 41.957031 26.96875 43.261719 L 26.96875 46.863281 C 26.820312 46.988281 26.65625 47.09375 26.484375 47.179688 C 26.285156 47.296875 26.046875 47.4375 25.789062 47.601562 L 25.789062 44.433594 C 25.789062 43.511719 25.996094 42.636719 26.414062 41.8125 C 26.828125 40.984375 27.40625 40.296875 28.148438 39.742188 Z M 28.148438 39.742188 " fill-opacity="1" fill-rule="nonzero"/><path fill="#005599" d="M 32.871094 39.742188 L 32.871094 40.914062 L 31.691406 40.914062 C 31.027344 40.914062 30.414062 41.085938 29.847656 41.429688 C 30.171875 40.90625 30.601562 40.496094 31.136719 40.195312 C 31.675781 39.894531 32.253906 39.742188 32.871094 39.742188 Z M 32.871094 39.742188 " fill-opacity="1" fill-rule="nonzero"/><path fill="#ffffff" d="M 25.789062 19.792969 C 22.054688 19.792969 21.066406 17.492188 21.066406 16.273438 L 22.246094 16.273438 L 23.429688 16.238281 C 23.441406 16.441406 23.617188 17.445312 25.789062 17.445312 C 25.945312 17.445312 26.097656 17.417969 26.242188 17.359375 C 26.386719 17.296875 26.511719 17.214844 26.625 17.101562 C 26.734375 16.992188 26.820312 16.867188 26.878906 16.722656 C 26.9375 16.578125 26.96875 16.429688 26.96875 16.273438 C 26.96875 16.117188 26.9375 15.96875 26.878906 15.824219 C 26.820312 15.679688 26.734375 15.554688 26.625 15.445312 C 26.511719 15.332031 26.386719 15.25 26.242188 15.1875 C 26.097656 15.128906 25.945312 15.101562 25.789062 15.101562 L 24.609375 15.101562 C 24.140625 15.101562 23.6875 15.011719 23.253906 14.832031 C 22.820312 14.652344 22.4375 14.398438 22.105469 14.070312 C 21.773438 13.738281 21.515625 13.359375 21.335938 12.925781 C 21.15625 12.496094 21.066406 12.046875 21.066406 11.578125 C 21.066406 11.113281 21.15625 10.664062 21.335938 10.234375 C 21.515625 9.800781 21.773438 9.421875 22.105469 9.089844 C 22.4375 8.761719 22.820312 8.507812 23.253906 8.328125 C 23.6875 8.148438 24.140625 8.058594 24.609375 8.058594 C 28.34375 8.058594 29.328125 10.363281 29.328125 11.578125 L 26.96875 11.578125 C 26.957031 11.410156 26.78125 10.40625 24.609375 10.40625 C 24.453125 10.40625 24.300781 10.4375 24.15625 10.496094 C 24.011719 10.554688 23.882812 10.640625 23.773438 10.75 C 23.664062 10.859375 23.578125 10.988281 23.519531 11.128906 C 23.457031 11.273438 23.429688 11.425781 23.429688 11.578125 C 23.429688 11.734375 23.457031 11.886719 23.519531 12.027344 C 23.578125 12.171875 23.664062 12.300781 23.773438 12.410156 C 23.882812 12.519531 24.011719 12.605469 24.15625 12.664062 C 24.300781 12.722656 24.453125 12.753906 24.609375 12.753906 L 25.789062 12.753906 C 26.257812 12.753906 26.710938 12.84375 27.144531 13.019531 C 27.578125 13.199219 27.960938 13.453125 28.292969 13.785156 C 28.625 14.113281 28.878906 14.496094 29.058594 14.925781 C 29.238281 15.359375 29.328125 15.804688 29.328125 16.273438 C 29.328125 16.738281 29.238281 17.1875 29.058594 17.621094 C 28.878906 18.050781 28.625 18.433594 28.292969 18.761719 C 27.960938 19.09375 27.578125 19.347656 27.144531 19.527344 C 26.710938 19.703125 26.257812 19.792969 25.789062 19.792969 Z M 25.789062 19.792969 " fill-opacity="1" fill-rule="nonzero"/><path fill="#08449e" d="M 27.628906 19.277344 C 27.308594 19.800781 26.878906 20.210938 26.339844 20.511719 C 25.800781 20.8125 25.226562 20.964844 24.609375 20.96875 C 20.878906 20.96875 19.886719 18.667969 19.886719 17.445312 L 21.328125 17.445312 C 21.8125 18.574219 23.074219 19.792969 25.789062 19.792969 C 26.453125 19.792969 27.066406 19.621094 27.628906 19.277344 Z M 27.628906 19.277344 " fill-opacity="1" fill-rule="nonzero"/><path fill="#08449e" d="M 26.96875 16.273438 C 26.96875 16.429688 26.9375 16.578125 26.878906 16.722656 C 26.820312 16.867188 26.734375 16.992188 26.625 17.101562 C 26.511719 17.214844 26.386719 17.296875 26.242188 17.359375 C 26.097656 17.417969 25.945312 17.445312 25.789062 17.445312 C 25.789062 17.292969 25.757812 17.140625 25.699219 16.996094 C 25.640625 16.855469 25.554688 16.726562 25.441406 16.617188 C 25.332031 16.507812 25.203125 16.421875 25.058594 16.363281 C 24.914062 16.304688 24.765625 16.273438 24.609375 16.273438 L 23.429688 16.273438 L 23.429688 16.238281 L 23.074219 16.25 L 23.0625 16.25 C 22.695312 16.210938 22.34375 16.117188 22.003906 15.96875 C 21.667969 15.820312 21.359375 15.621094 21.082031 15.378906 C 20.808594 15.132812 20.574219 14.851562 20.386719 14.535156 C 20.199219 14.21875 20.066406 13.882812 19.984375 13.523438 C 19.902344 13.167969 19.878906 12.804688 19.910156 12.4375 C 19.945312 12.070312 20.03125 11.71875 20.175781 11.382812 C 20.320312 11.042969 20.511719 10.734375 20.753906 10.457031 C 20.992188 10.175781 21.273438 9.941406 21.585938 9.75 C 21.253906 10.292969 21.082031 10.882812 21.070312 11.519531 C 21.058594 12.152344 21.210938 12.75 21.523438 13.304688 C 21.835938 13.859375 22.269531 14.296875 22.820312 14.617188 C 23.375 14.9375 23.96875 15.097656 24.609375 15.101562 L 25.789062 15.101562 C 25.945312 15.101562 26.097656 15.128906 26.242188 15.1875 C 26.386719 15.25 26.511719 15.332031 26.625 15.445312 C 26.734375 15.554688 26.820312 15.679688 26.878906 15.824219 C 26.9375 15.96875 26.96875 16.117188 26.96875 16.273438 Z M 26.96875 16.273438 " fill-opacity="1" fill-rule="nonzero"/><path fill="#08449e" d="M 28.148438 12.753906 L 25.789062 12.753906 C 25.777344 12.589844 25.601562 11.578125 23.429688 11.578125 C 23.429688 11.425781 23.457031 11.273438 23.519531 11.128906 C 23.578125 10.988281 23.664062 10.859375 23.773438 10.75 C 23.882812 10.640625 24.011719 10.554688 24.15625 10.496094 C 24.300781 10.4375 24.453125 10.40625 24.609375 10.40625 C 26.78125 10.40625 26.957031 11.414062 26.96875 11.578125 L 27.890625 11.578125 C 28.058594 11.953125 28.144531 12.34375 28.148438 12.753906 Z M 28.148438 12.753906 " fill-opacity="1" fill-rule="nonzero"/><path fill="#ffffff" d="M 36.410156 19.792969 C 32.675781 19.792969 31.691406 17.492188 31.691406 16.273438 L 32.871094 16.273438 L 34.050781 16.238281 C 34.066406 16.441406 34.238281 17.445312 36.410156 17.445312 C 36.566406 17.445312 36.71875 17.417969 36.863281 17.359375 C 37.007812 17.296875 37.136719 17.214844 37.246094 17.101562 C 37.355469 16.992188 37.441406 16.867188 37.5 16.722656 C 37.5625 16.578125 37.589844 16.429688 37.589844 16.273438 C 37.589844 16.117188 37.5625 15.96875 37.5 15.824219 C 37.441406 15.679688 37.355469 15.554688 37.246094 15.445312 C 37.136719 15.332031 37.007812 15.25 36.863281 15.1875 C 36.71875 15.128906 36.566406 15.101562 36.410156 15.101562 L 35.230469 15.101562 C 34.761719 15.101562 34.308594 15.011719 33.875 14.832031 C 33.441406 14.652344 33.058594 14.398438 32.726562 14.070312 C 32.394531 13.738281 32.140625 13.359375 31.960938 12.925781 C 31.78125 12.496094 31.691406 12.046875 31.691406 11.578125 C 31.691406 11.113281 31.78125 10.664062 31.960938 10.234375 C 32.140625 9.800781 32.394531 9.421875 32.726562 9.089844 C 33.058594 8.761719 33.441406 8.507812 33.875 8.328125 C 34.308594 8.148438 34.761719 8.058594 35.230469 8.058594 C 38.964844 8.058594 39.953125 10.363281 39.953125 11.578125 L 37.589844 11.578125 C 37.578125 11.410156 37.402344 10.40625 35.230469 10.40625 C 35.074219 10.40625 34.921875 10.4375 34.777344 10.496094 C 34.632812 10.554688 34.507812 10.640625 34.394531 10.75 C 34.285156 10.859375 34.199219 10.988281 34.140625 11.128906 C 34.082031 11.273438 34.050781 11.425781 34.050781 11.578125 C 34.050781 11.734375 34.082031 11.886719 34.140625 12.027344 C 34.199219 12.171875 34.285156 12.300781 34.394531 12.410156 C 34.507812 12.519531 34.632812 12.605469 34.777344 12.664062 C 34.921875 12.722656 35.074219 12.753906 35.230469 12.753906 L 36.410156 12.753906 C 36.878906 12.753906 37.332031 12.84375 37.765625 13.019531 C 38.199219 13.199219 38.582031 13.453125 38.914062 13.785156 C 39.246094 14.113281 39.503906 14.496094 39.683594 14.925781 C 39.863281 15.359375 39.953125 15.804688 39.953125 16.273438 C 39.953125 16.738281 39.863281 17.1875 39.683594 17.621094 C 39.503906 18.050781 39.246094 18.433594 38.914062 18.761719 C 38.582031 19.09375 38.199219 19.347656 37.765625 19.527344 C 37.332031 19.703125 36.878906 19.792969 36.410156 19.792969 Z M 36.410156 19.792969 " fill-opacity="1" fill-rule="nonzero"/><path fill="#08449e" d="M 38.253906 19.277344 C 37.929688 19.800781 37.5 20.210938 36.960938 20.511719 C 36.425781 20.8125 35.847656 20.964844 35.230469 20.96875 C 31.5 20.96875 30.507812 18.667969 30.507812 17.445312 L 31.949219 17.445312 C 32.433594 18.574219 33.695312 19.792969 36.410156 19.792969 C 37.074219 19.792969 37.6875 19.621094 38.253906 19.277344 Z M 38.253906 19.277344 " fill-opacity="1" fill-rule="nonzero"/><path fill="#08449e" d="M 37.589844 16.273438 C 37.589844 16.429688 37.5625 16.578125 37.5 16.722656 C 37.441406 16.867188 37.355469 16.992188 37.246094 17.101562 C 37.136719 17.214844 37.007812 17.296875 36.863281 17.359375 C 36.71875 17.417969 36.566406 17.445312 36.410156 17.445312 C 36.410156 17.292969 36.382812 17.140625 36.320312 16.996094 C 36.261719 16.855469 36.175781 16.726562 36.066406 16.617188 C 35.953125 16.507812 35.828125 16.421875 35.683594 16.363281 C 35.539062 16.304688 35.386719 16.273438 35.230469 16.273438 L 34.050781 16.273438 L 34.050781 16.238281 L 33.695312 16.25 L 33.683594 16.25 C 33.316406 16.210938 32.964844 16.117188 32.625 15.96875 C 32.289062 15.820312 31.980469 15.621094 31.707031 15.378906 C 31.429688 15.132812 31.199219 14.851562 31.011719 14.535156 C 30.824219 14.21875 30.6875 13.882812 30.605469 13.523438 C 30.527344 13.167969 30.5 12.804688 30.535156 12.4375 C 30.566406 12.070312 30.65625 11.71875 30.796875 11.382812 C 30.941406 11.042969 31.132812 10.734375 31.375 10.457031 C 31.617188 10.175781 31.894531 9.941406 32.210938 9.75 C 31.875 10.292969 31.703125 10.882812 31.695312 11.519531 C 31.683594 12.152344 31.832031 12.75 32.144531 13.304688 C 32.460938 13.859375 32.890625 14.296875 33.445312 14.617188 C 33.996094 14.9375 34.589844 15.097656 35.230469 15.101562 L 36.410156 15.101562 C 36.566406 15.101562 36.71875 15.128906 36.863281 15.1875 C 37.007812 15.25 37.136719 15.332031 37.246094 15.445312 C 37.355469 15.554688 37.441406 15.679688 37.5 15.824219 C 37.5625 15.96875 37.589844 16.117188 37.589844 16.273438 Z M 37.589844 16.273438 " fill-opacity="1" fill-rule="nonzero"/><path fill="#08449e" d="M 38.773438 12.753906 L 36.410156 12.753906 C 36.398438 12.589844 36.222656 11.578125 34.050781 11.578125 C 34.050781 11.425781 34.082031 11.273438 34.140625 11.128906 C 34.199219 10.988281 34.285156 10.859375 34.394531 10.75 C 34.507812 10.640625 34.632812 10.554688 34.777344 10.496094 C 34.921875 10.4375 35.074219 10.40625 35.230469 10.40625 C 37.402344 10.40625 37.578125 11.414062 37.589844 11.578125 L 38.511719 11.578125 C 38.679688 11.953125 38.765625 12.34375 38.773438 12.753906 Z M 38.773438 12.753906 " fill-opacity="1" fill-rule="nonzero"/><path fill="#f2f2f2" d="M 18.707031 19.792969 L 17.527344 19.792969 C 17.140625 19.792969 16.753906 19.757812 16.375 19.679688 C 15.996094 19.605469 15.625 19.496094 15.269531 19.347656 C 14.910156 19.199219 14.570312 19.019531 14.25 18.804688 C 13.925781 18.589844 13.628906 18.347656 13.355469 18.074219 C 13.078125 17.804688 12.835938 17.507812 12.621094 17.1875 C 12.40625 16.867188 12.222656 16.527344 12.074219 16.171875 C 11.925781 15.816406 11.816406 15.449219 11.738281 15.070312 C 11.664062 14.695312 11.625 14.3125 11.625 13.925781 C 11.625 13.542969 11.664062 13.160156 11.738281 12.78125 C 11.816406 12.402344 11.925781 12.039062 12.074219 11.679688 C 12.222656 11.324219 12.40625 10.988281 12.621094 10.667969 C 12.835938 10.347656 13.078125 10.050781 13.355469 9.777344 C 13.628906 9.503906 13.925781 9.261719 14.25 9.046875 C 14.570312 8.835938 14.910156 8.652344 15.269531 8.507812 C 15.625 8.359375 15.996094 8.246094 16.375 8.171875 C 16.753906 8.097656 17.140625 8.058594 17.527344 8.058594 L 18.707031 8.058594 L 18.707031 10.40625 L 17.527344 10.40625 C 17.058594 10.40625 16.605469 10.496094 16.171875 10.675781 C 15.738281 10.851562 15.355469 11.109375 15.023438 11.4375 C 14.691406 11.769531 14.433594 12.148438 14.253906 12.578125 C 14.074219 13.011719 13.984375 13.460938 13.984375 13.925781 C 13.984375 14.394531 14.074219 14.84375 14.253906 15.273438 C 14.433594 15.703125 14.691406 16.085938 15.023438 16.414062 C 15.355469 16.746094 15.738281 17 16.171875 17.179688 C 16.605469 17.359375 17.058594 17.445312 17.527344 17.445312 L 18.707031 17.445312 Z M 18.707031 19.792969 " fill-opacity="1" fill-rule="nonzero"/><path fill="#08449e" d="M 17.527344 19.792969 L 17.527344 20.96875 L 16.347656 20.96875 C 15.726562 20.96875 15.121094 20.871094 14.535156 20.683594 C 13.945312 20.492188 13.398438 20.21875 12.894531 19.859375 C 12.394531 19.5 11.960938 19.070312 11.59375 18.574219 C 11.226562 18.078125 10.945312 17.539062 10.75 16.957031 C 10.550781 16.371094 10.453125 15.769531 10.445312 15.15625 C 10.441406 14.539062 10.527344 13.9375 10.714844 13.351562 C 10.898438 12.761719 11.167969 12.21875 11.527344 11.714844 C 11.882812 11.210938 12.308594 10.777344 12.804688 10.40625 C 12.015625 11.449219 11.621094 12.621094 11.625 13.925781 C 11.625 14.3125 11.664062 14.695312 11.738281 15.070312 C 11.816406 15.449219 11.925781 15.816406 12.074219 16.171875 C 12.222656 16.527344 12.40625 16.867188 12.621094 17.1875 C 12.835938 17.507812 13.078125 17.804688 13.355469 18.074219 C 13.628906 18.347656 13.925781 18.589844 14.25 18.804688 C 14.570312 19.019531 14.910156 19.199219 15.269531 19.347656 C 15.625 19.496094 15.996094 19.605469 16.375 19.679688 C 16.753906 19.757812 17.140625 19.792969 17.527344 19.792969 Z M 17.527344 19.792969 " fill-opacity="1" fill-rule="nonzero"/><path fill="#08449e" d="M 17.527344 10.40625 L 17.527344 11.578125 L 16.347656 11.578125 C 15.683594 11.578125 15.070312 11.75 14.503906 12.097656 C 14.828125 11.574219 15.257812 11.160156 15.792969 10.859375 C 16.332031 10.558594 16.910156 10.410156 17.527344 10.40625 Z M 17.527344 10.40625 " fill-opacity="1" fill-rule="nonzero"/></svg>