<svg xmlns="http://www.w3.org/2000/svg" xmlns:xlink="http://www.w3.org/1999/xlink" width="100" zoomAndPan="magnify" viewBox="0 0 75 74.999997" height="100" preserveAspectRatio="xMidYMid meet" version="1.0"><defs><clipPath id="1c7e1ad1bd"><path d="M 1.335938 1.335938 L 73.335938 1.335938 L 73.335938 73.335938 L 1.335938 73.335938 Z M 1.335938 1.335938 " clip-rule="nonzero"/></clipPath></defs><g clip-path="url(#1c7e1ad1bd)"><path fill="#f03c2e" d="M 71.976562 34.128906 L 40.539062 2.695312 C 40.324219 2.476562 40.089844 2.285156 39.839844 2.117188 C 39.585938 1.949219 39.316406 1.804688 39.035156 1.6875 C 38.753906 1.570312 38.464844 1.484375 38.167969 1.425781 C 37.867188 1.363281 37.566406 1.335938 37.261719 1.335938 C 36.957031 1.335938 36.65625 1.363281 36.359375 1.425781 C 36.058594 1.484375 35.769531 1.570312 35.488281 1.6875 C 35.207031 1.804688 34.941406 1.949219 34.6875 2.117188 C 34.433594 2.285156 34.199219 2.476562 33.984375 2.695312 L 27.460938 9.21875 L 35.738281 17.5 C 37.664062 16.824219 39.871094 17.285156 41.40625 18.820312 C 41.769531 19.183594 42.078125 19.59375 42.328125 20.046875 C 42.578125 20.5 42.761719 20.976562 42.875 21.480469 C 42.992188 21.984375 43.035156 22.496094 43.007812 23.011719 C 42.980469 23.527344 42.882812 24.03125 42.710938 24.519531 L 50.691406 32.5 C 52.625 31.832031 54.851562 32.261719 56.390625 33.808594 C 56.648438 34.066406 56.878906 34.34375 57.078125 34.644531 C 57.28125 34.945312 57.449219 35.265625 57.589844 35.597656 C 57.726562 35.933594 57.832031 36.28125 57.902344 36.636719 C 57.972656 36.992188 58.011719 37.347656 58.011719 37.710938 C 58.011719 38.074219 57.972656 38.433594 57.902344 38.789062 C 57.832031 39.144531 57.726562 39.488281 57.589844 39.824219 C 57.449219 40.160156 57.28125 40.476562 57.078125 40.777344 C 56.878906 41.078125 56.648438 41.359375 56.394531 41.613281 C 56.136719 41.871094 55.859375 42.101562 55.554688 42.300781 C 55.253906 42.503906 54.9375 42.671875 54.601562 42.8125 C 54.265625 42.949219 53.921875 43.054688 53.566406 43.125 C 53.210938 43.195312 52.851562 43.230469 52.488281 43.230469 C 52.125 43.230469 51.769531 43.195312 51.414062 43.125 C 51.058594 43.054688 50.710938 42.949219 50.378906 42.808594 C 50.042969 42.671875 49.722656 42.5 49.421875 42.300781 C 49.121094 42.097656 48.84375 41.867188 48.585938 41.613281 C 46.96875 39.992188 46.566406 37.605469 47.386719 35.609375 L 39.941406 28.167969 L 39.941406 47.753906 C 40.484375 48.023438 40.972656 48.371094 41.40625 48.796875 C 41.660156 49.054688 41.890625 49.332031 42.089844 49.632812 C 42.292969 49.9375 42.460938 50.253906 42.601562 50.589844 C 42.738281 50.921875 42.84375 51.269531 42.914062 51.625 C 42.984375 51.980469 43.019531 52.335938 43.019531 52.699219 C 43.019531 53.0625 42.984375 53.421875 42.914062 53.777344 C 42.84375 54.132812 42.738281 54.476562 42.601562 54.8125 C 42.460938 55.144531 42.292969 55.464844 42.089844 55.765625 C 41.890625 56.066406 41.660156 56.34375 41.40625 56.601562 C 41.148438 56.859375 40.871094 57.085938 40.570312 57.289062 C 40.269531 57.488281 39.949219 57.660156 39.613281 57.796875 C 39.28125 57.9375 38.933594 58.039062 38.578125 58.113281 C 38.222656 58.183594 37.867188 58.21875 37.503906 58.21875 C 37.140625 58.21875 36.78125 58.183594 36.425781 58.113281 C 36.070312 58.039062 35.726562 57.9375 35.390625 57.796875 C 35.058594 57.660156 34.738281 57.488281 34.4375 57.289062 C 34.136719 57.085938 33.859375 56.859375 33.601562 56.601562 C 33.34375 56.34375 33.117188 56.066406 32.914062 55.765625 C 32.714844 55.464844 32.542969 55.148438 32.40625 54.8125 C 32.265625 54.476562 32.160156 54.132812 32.089844 53.777344 C 32.019531 53.421875 31.984375 53.0625 31.984375 52.699219 C 31.984375 52.335938 32.019531 51.980469 32.089844 51.625 C 32.160156 51.269531 32.265625 50.921875 32.40625 50.589844 C 32.542969 50.253906 32.714844 49.933594 32.914062 49.632812 C 33.117188 49.332031 33.34375 49.054688 33.601562 48.796875 C 34.136719 48.265625 34.726562 47.863281 35.410156 47.59375 L 35.410156 27.828125 C 34.75 27.554688 34.136719 27.15625 33.601562 26.621094 C 33.214844 26.234375 32.890625 25.800781 32.632812 25.316406 C 32.375 24.835938 32.195312 24.324219 32.089844 23.789062 C 31.984375 23.25 31.957031 22.710938 32.011719 22.164062 C 32.070312 21.621094 32.203125 21.09375 32.414062 20.589844 L 24.246094 12.425781 L 2.691406 33.960938 C 2.476562 34.175781 2.285156 34.410156 2.113281 34.664062 C 1.945312 34.914062 1.800781 35.183594 1.683594 35.464844 C 1.570312 35.746094 1.480469 36.035156 1.421875 36.335938 C 1.363281 36.632812 1.332031 36.933594 1.332031 37.238281 C 1.332031 37.542969 1.363281 37.84375 1.421875 38.144531 C 1.480469 38.441406 1.570312 38.734375 1.683594 39.015625 C 1.800781 39.296875 1.945312 39.5625 2.113281 39.816406 C 2.285156 40.070312 2.476562 40.304688 2.691406 40.519531 L 34.128906 71.949219 C 34.34375 72.167969 34.578125 72.359375 34.832031 72.527344 C 35.085938 72.695312 35.351562 72.839844 35.632812 72.957031 C 35.914062 73.074219 36.203125 73.160156 36.503906 73.21875 C 36.800781 73.28125 37.101562 73.308594 37.40625 73.308594 C 37.710938 73.308594 38.011719 73.28125 38.3125 73.21875 C 38.609375 73.160156 38.898438 73.074219 39.179688 72.957031 C 39.460938 72.839844 39.730469 72.695312 39.984375 72.527344 C 40.234375 72.359375 40.46875 72.167969 40.683594 71.949219 L 71.976562 40.710938 C 72.191406 40.496094 72.382812 40.261719 72.554688 40.007812 C 72.722656 39.753906 72.867188 39.488281 72.980469 39.207031 C 73.097656 38.925781 73.1875 38.632812 73.246094 38.335938 C 73.304688 38.035156 73.335938 37.734375 73.335938 37.429688 C 73.335938 37.125 73.304688 36.824219 73.246094 36.527344 C 73.1875 36.226562 73.097656 35.9375 72.980469 35.65625 C 72.867188 35.375 72.722656 35.105469 72.554688 34.855469 C 72.382812 34.601562 72.191406 34.367188 71.976562 34.152344 " fill-opacity="1" fill-rule="nonzero"/></g></svg>