<svg xmlns="http://www.w3.org/2000/svg" xmlns:xlink="http://www.w3.org/1999/xlink" width="100" zoomAndPan="magnify" viewBox="0 0 75 74.999997" height="100" preserveAspectRatio="xMidYMid meet" version="1.0"><defs><clipPath id="deb07de689"><path d="M 55 0.835938 L 69.308594 0.835938 L 69.308594 16 L 55 16 Z M 55 0.835938 " clip-rule="nonzero"/></clipPath><clipPath id="8c903ab458"><path d="M 15 0.835938 L 69.308594 0.835938 L 69.308594 74.335938 L 15 74.335938 Z M 15 0.835938 " clip-rule="nonzero"/></clipPath><clipPath id="5030ef5403"><path d="M 56 15 L 69.308594 15 L 69.308594 18 L 56 18 Z M 56 15 " clip-rule="nonzero"/></clipPath><clipPath id="05c998a446"><path d="M 5.558594 4 L 49 4 L 49 24 L 5.558594 24 Z M 5.558594 4 " clip-rule="nonzero"/></clipPath></defs><g clip-path="url(#deb07de689)"><path fill="#ffaf36" d="M 55.136719 0.835938 L 69.300781 15.0625 L 55.136719 15.0625 Z M 55.136719 0.835938 " fill-opacity="1" fill-rule="nonzero"/></g><g clip-path="url(#8c903ab458)"><path fill="#ff6d00" d="M 69.300781 15.0625 L 69.300781 74.335938 L 15.007812 74.335938 L 15.007812 0.835938 L 55.136719 0.835938 L 55.136719 15.0625 Z M 69.300781 15.0625 " fill-opacity="1" fill-rule="nonzero"/></g><path fill="#f54e00" d="M 17.367188 10.320312 L 17.367188 67.226562 C 17.367188 67.535156 17.398438 67.84375 17.460938 68.148438 C 17.519531 68.457031 17.609375 68.75 17.726562 69.039062 C 17.847656 69.328125 17.992188 69.601562 18.164062 69.859375 C 18.335938 70.117188 18.53125 70.359375 18.75 70.578125 C 18.96875 70.796875 19.207031 70.996094 19.464844 71.167969 C 19.722656 71.339844 19.996094 71.488281 20.28125 71.605469 C 20.570312 71.726562 20.863281 71.816406 21.167969 71.875 C 21.472656 71.9375 21.78125 71.964844 22.089844 71.964844 L 62.21875 71.964844 C 62.527344 71.964844 62.835938 71.9375 63.140625 71.875 C 63.445312 71.816406 63.738281 71.726562 64.023438 71.605469 C 64.3125 71.488281 64.582031 71.339844 64.839844 71.167969 C 65.097656 70.996094 65.335938 70.796875 65.558594 70.578125 C 65.777344 70.359375 65.972656 70.117188 66.144531 69.859375 C 66.316406 69.601562 66.460938 69.328125 66.582031 69.039062 C 66.699219 68.75 66.789062 68.457031 66.847656 68.148438 C 66.910156 67.84375 66.941406 67.535156 66.941406 67.226562 L 66.941406 64.707031 C 17.367188 61.640625 17.367188 10.320312 17.367188 10.320312 Z M 17.367188 10.320312 " fill-opacity="1" fill-rule="nonzero"/><g clip-path="url(#5030ef5403)"><path fill="#f54e00" d="M 56.316406 15.0625 L 69.300781 15.0625 L 69.300781 17.433594 L 56.316406 17.433594 Z M 56.316406 15.0625 " fill-opacity="1" fill-rule="nonzero"/></g><g clip-path="url(#05c998a446)"><path fill="#f54100" d="M 5.566406 4.394531 L 48.054688 4.394531 L 48.054688 23.363281 L 5.566406 23.363281 Z M 5.566406 4.394531 " fill-opacity="1" fill-rule="nonzero"/></g><path fill="#d63900" d="M 15.007812 23.363281 L 45.695312 23.363281 L 45.695312 26.917969 L 15.007812 26.917969 Z M 15.007812 23.363281 " fill-opacity="1" fill-rule="nonzero"/><path fill="#ffffff" d="M 40.972656 17.433594 L 40.972656 7.949219 L 38.613281 7.949219 L 38.613281 18.621094 C 38.613281 18.777344 38.644531 18.929688 38.703125 19.074219 C 38.761719 19.21875 38.847656 19.347656 38.957031 19.457031 C 39.070312 19.570312 39.195312 19.65625 39.339844 19.714844 C 39.488281 19.773438 39.636719 19.804688 39.792969 19.804688 L 44.515625 19.804688 L 44.515625 17.433594 Z M 40.972656 17.433594 " fill-opacity="1" fill-rule="nonzero"/><path fill="#ffffff" d="M 15.007812 12.691406 L 11.46875 12.691406 L 11.46875 7.949219 L 9.105469 7.949219 L 9.105469 19.804688 L 11.46875 19.804688 L 11.46875 15.0625 L 15.007812 15.0625 L 15.007812 19.804688 L 17.367188 19.804688 L 17.367188 7.949219 L 15.007812 7.949219 Z M 15.007812 12.691406 " fill-opacity="1" fill-rule="nonzero"/><path fill="#ffffff" d="M 18.546875 10.320312 L 20.910156 10.320312 L 20.910156 19.804688 L 23.269531 19.804688 L 23.269531 10.320312 L 25.628906 10.320312 L 25.628906 7.949219 L 18.546875 7.949219 Z M 18.546875 10.320312 " fill-opacity="1" fill-rule="nonzero"/><path fill="#ffffff" d="M 35.308594 7.976562 C 35.035156 7.917969 34.773438 7.953125 34.523438 8.082031 C 34.273438 8.214844 34.097656 8.410156 33.988281 8.667969 L 31.53125 14.425781 L 29.074219 8.667969 C 28.964844 8.410156 28.785156 8.214844 28.539062 8.085938 C 28.289062 7.957031 28.027344 7.917969 27.753906 7.976562 C 27.480469 8.03125 27.253906 8.167969 27.078125 8.386719 C 26.898438 8.605469 26.8125 8.855469 26.8125 9.136719 L 26.8125 19.804688 L 29.171875 19.804688 L 29.171875 14.910156 L 30.445312 17.902344 C 30.539062 18.121094 30.683594 18.292969 30.882812 18.425781 C 31.078125 18.554688 31.296875 18.621094 31.53125 18.621094 C 31.769531 18.621094 31.984375 18.554688 32.179688 18.425781 C 32.378906 18.292969 32.523438 18.121094 32.617188 17.902344 L 33.890625 14.910156 L 33.890625 19.804688 L 36.253906 19.804688 L 36.253906 9.136719 C 36.253906 8.855469 36.164062 8.605469 35.988281 8.386719 C 35.808594 8.167969 35.582031 8.03125 35.308594 7.976562 Z M 35.308594 7.976562 " fill-opacity="1" fill-rule="nonzero"/><path fill="#ffffff" d="M 29.171875 58.925781 L 19.730469 48.257812 L 29.171875 37.585938 L 33.890625 37.585938 L 24.449219 48.257812 L 33.890625 58.925781 Z M 29.171875 58.925781 " fill-opacity="1" fill-rule="nonzero"/><path fill="#ffffff" d="M 55.136719 58.925781 L 64.578125 48.257812 L 55.136719 37.585938 L 50.414062 37.585938 L 59.859375 48.257812 L 50.414062 58.925781 Z M 55.136719 58.925781 " fill-opacity="1" fill-rule="nonzero"/><path fill="#ffffff" d="M 37.433594 58.925781 L 43.335938 37.585938 L 46.875 37.585938 L 40.972656 58.925781 Z M 37.433594 58.925781 " fill-opacity="1" fill-rule="nonzero"/><path fill="#d63900" d="M 19.730469 48.257812 L 27.074219 39.957031 L 26.8125 39.957031 L 17.367188 50.628906 L 26.8125 61.296875 L 31.53125 61.296875 L 29.433594 58.925781 L 29.171875 58.925781 Z M 19.730469 48.257812 " fill-opacity="1" fill-rule="nonzero"/><path fill="#d63900" d="M 59.859375 48.257812 L 52.515625 39.957031 L 48.054688 39.957031 L 57.496094 50.628906 L 48.054688 61.296875 L 52.777344 61.296875 L 54.875 58.925781 L 50.414062 58.925781 Z M 59.859375 48.257812 " fill-opacity="1" fill-rule="nonzero"/><path fill="#d63900" d="M 42.679688 39.957031 L 40.972656 39.957031 L 35.074219 61.296875 L 38.613281 61.296875 L 39.269531 58.925781 L 37.433594 58.925781 Z M 42.679688 39.957031 " fill-opacity="1" fill-rule="nonzero"/><path fill="#d63900" d="M 38.613281 18.621094 L 38.613281 9.136719 L 37.433594 9.136719 L 37.433594 19.804688 C 37.433594 19.960938 37.460938 20.113281 37.523438 20.257812 C 37.582031 20.402344 37.667969 20.53125 37.777344 20.644531 C 37.890625 20.753906 38.015625 20.839844 38.160156 20.902344 C 38.304688 20.960938 38.457031 20.992188 38.613281 20.992188 L 43.335938 20.992188 L 43.335938 19.804688 L 39.792969 19.804688 C 39.636719 19.804688 39.488281 19.773438 39.339844 19.714844 C 39.195312 19.65625 39.070312 19.570312 38.957031 19.457031 C 38.847656 19.347656 38.761719 19.21875 38.703125 19.074219 C 38.644531 18.929688 38.613281 18.777344 38.613281 18.621094 Z M 38.613281 18.621094 " fill-opacity="1" fill-rule="nonzero"/><path fill="#d63900" d="M 13.828125 9.136719 L 15.007812 9.136719 L 15.007812 12.691406 L 13.828125 12.691406 Z M 13.828125 9.136719 " fill-opacity="1" fill-rule="nonzero"/><path fill="#d63900" d="M 9.105469 9.136719 L 7.925781 9.136719 L 7.925781 20.992188 L 10.285156 20.992188 L 10.285156 19.804688 L 9.105469 19.804688 Z M 9.105469 9.136719 " fill-opacity="1" fill-rule="nonzero"/><path fill="#d63900" d="M 15.007812 15.0625 L 11.46875 15.0625 L 11.46875 16.25 L 13.828125 16.25 L 13.828125 20.992188 L 16.1875 20.992188 L 16.1875 19.804688 L 15.007812 19.804688 Z M 15.007812 15.0625 " fill-opacity="1" fill-rule="nonzero"/><path fill="#d63900" d="M 23.269531 10.320312 L 24.449219 10.320312 L 24.449219 11.507812 L 23.269531 11.507812 Z M 23.269531 10.320312 " fill-opacity="1" fill-rule="nonzero"/><path fill="#d63900" d="M 20.910156 10.320312 L 18.546875 10.320312 L 18.546875 9.136719 L 17.367188 9.136719 L 17.367188 11.507812 L 19.730469 11.507812 L 19.730469 20.992188 L 22.089844 20.992188 L 22.089844 19.804688 L 20.910156 19.804688 Z M 20.910156 10.320312 " fill-opacity="1" fill-rule="nonzero"/><path fill="#d63900" d="M 26.8125 9.152344 C 26.730469 9.148438 26.652344 9.148438 26.574219 9.160156 C 26.300781 9.21875 26.074219 9.355469 25.898438 9.574219 C 25.71875 9.789062 25.628906 10.039062 25.628906 10.320312 L 25.628906 20.992188 L 27.992188 20.992188 L 27.992188 19.804688 L 26.8125 19.804688 Z M 26.8125 9.152344 " fill-opacity="1" fill-rule="nonzero"/><path fill="#d63900" d="M 33.785156 9.148438 C 33.316406 9.191406 32.992188 9.429688 32.808594 9.859375 L 31.195312 13.640625 L 31.53125 14.429688 Z M 33.785156 9.148438 " fill-opacity="1" fill-rule="nonzero"/><path fill="#d63900" d="M 30.445312 17.902344 L 29.171875 14.910156 L 29.171875 18.855469 L 29.265625 19.082031 C 29.359375 19.300781 29.503906 19.472656 29.703125 19.601562 C 29.898438 19.734375 30.117188 19.800781 30.351562 19.800781 C 30.585938 19.800781 30.804688 19.734375 31 19.601562 C 31.199219 19.472656 31.34375 19.300781 31.4375 19.082031 L 31.640625 18.597656 C 31.605469 18.597656 31.570312 18.613281 31.53125 18.613281 C 31.296875 18.613281 31.082031 18.550781 30.882812 18.421875 C 30.6875 18.292969 30.539062 18.117188 30.445312 17.902344 Z M 30.445312 17.902344 " fill-opacity="1" fill-rule="nonzero"/><path fill="#d63900" d="M 33.890625 14.910156 L 32.710938 17.675781 L 32.710938 20.992188 L 35.074219 20.992188 L 35.074219 19.804688 L 33.890625 19.804688 Z M 33.890625 14.910156 " fill-opacity="1" fill-rule="nonzero"/></svg>