<svg xmlns="http://www.w3.org/2000/svg" xmlns:xlink="http://www.w3.org/1999/xlink" width="100" zoomAndPan="magnify" viewBox="0 0 75 74.999997" height="100" preserveAspectRatio="xMidYMid meet" version="1.0"><defs><clipPath id="5c68693dbf"><path d="M 55 1.042969 L 69.488281 1.042969 L 69.488281 16 L 55 16 Z M 55 1.042969 " clip-rule="nonzero"/></clipPath><clipPath id="e6edc23c02"><path d="M 15 1.042969 L 69.488281 1.042969 L 69.488281 73.792969 L 15 73.792969 Z M 15 1.042969 " clip-rule="nonzero"/></clipPath><clipPath id="9d6c054df2"><path d="M 56 15 L 69.488281 15 L 69.488281 18 L 56 18 Z M 56 15 " clip-rule="nonzero"/></clipPath><clipPath id="932dd32d86"><path d="M 5.738281 4 L 49 4 L 49 24 L 5.738281 24 Z M 5.738281 4 " clip-rule="nonzero"/></clipPath></defs><g clip-path="url(#5c68693dbf)"><path fill="#ffed9e" d="M 55.316406 1.042969 L 69.476562 15.125 L 55.316406 15.125 Z M 55.316406 1.042969 " fill-opacity="1" fill-rule="nonzero"/></g><g clip-path="url(#e6edc23c02)"><path fill="#fdd734" d="M 69.476562 15.125 L 69.476562 73.792969 L 15.1875 73.792969 L 15.1875 1.042969 L 55.316406 1.042969 L 55.316406 15.125 Z M 69.476562 15.125 " fill-opacity="1" fill-rule="nonzero"/></g><path fill="#ffbf00" d="M 17.550781 10.429688 L 17.550781 66.753906 C 17.550781 67.0625 17.578125 67.367188 17.640625 67.667969 C 17.699219 67.972656 17.789062 68.265625 17.910156 68.550781 C 18.027344 68.835938 18.171875 69.105469 18.34375 69.363281 C 18.519531 69.617188 18.714844 69.855469 18.933594 70.074219 C 19.152344 70.289062 19.390625 70.484375 19.648438 70.65625 C 19.90625 70.828125 20.175781 70.972656 20.464844 71.089844 C 20.75 71.207031 21.046875 71.296875 21.347656 71.355469 C 21.652344 71.417969 21.960938 71.449219 22.269531 71.449219 L 62.398438 71.449219 C 62.707031 71.449219 63.015625 71.417969 63.316406 71.355469 C 63.621094 71.296875 63.917969 71.207031 64.203125 71.089844 C 64.488281 70.972656 64.761719 70.828125 65.019531 70.65625 C 65.277344 70.484375 65.515625 70.289062 65.734375 70.074219 C 65.953125 69.855469 66.148438 69.617188 66.320312 69.363281 C 66.492188 69.105469 66.640625 68.835938 66.757812 68.550781 C 66.875 68.265625 66.964844 67.972656 67.027344 67.667969 C 67.085938 67.367188 67.117188 67.0625 67.117188 66.753906 L 67.117188 64.261719 C 17.550781 61.226562 17.550781 10.429688 17.550781 10.429688 Z M 17.550781 10.429688 " fill-opacity="1" fill-rule="nonzero"/><g clip-path="url(#9d6c054df2)"><path fill="#ffbf00" d="M 56.496094 15.125 L 69.476562 15.125 L 69.476562 17.472656 L 56.496094 17.472656 Z M 56.496094 15.125 " fill-opacity="1" fill-rule="nonzero"/></g><g clip-path="url(#932dd32d86)"><path fill="#ffbf00" d="M 5.746094 4.5625 L 48.234375 4.5625 L 48.234375 23.339844 L 5.746094 23.339844 Z M 5.746094 4.5625 " fill-opacity="1" fill-rule="nonzero"/></g><path fill="#e89e00" d="M 15.1875 23.339844 L 45.875 23.339844 L 45.875 26.859375 L 15.1875 26.859375 Z M 15.1875 23.339844 " fill-opacity="1" fill-rule="nonzero"/><path fill="#ffffff" d="M 30.53125 19.820312 C 26.796875 19.820312 25.8125 17.515625 25.8125 16.296875 L 26.992188 16.296875 L 28.171875 16.265625 C 28.1875 16.464844 28.359375 17.472656 30.53125 17.472656 C 30.6875 17.472656 30.839844 17.441406 30.984375 17.382812 C 31.128906 17.324219 31.253906 17.238281 31.367188 17.128906 C 31.476562 17.019531 31.5625 16.890625 31.621094 16.746094 C 31.683594 16.605469 31.710938 16.453125 31.710938 16.296875 C 31.710938 16.144531 31.683594 15.992188 31.621094 15.847656 C 31.5625 15.707031 31.476562 15.578125 31.367188 15.46875 C 31.253906 15.359375 31.128906 15.273438 30.984375 15.214844 C 30.839844 15.15625 30.6875 15.125 30.53125 15.125 L 29.351562 15.125 C 28.882812 15.125 28.429688 15.035156 27.996094 14.855469 C 27.5625 14.679688 27.179688 14.425781 26.847656 14.09375 C 26.515625 13.765625 26.261719 13.382812 26.082031 12.953125 C 25.902344 12.519531 25.8125 12.070312 25.8125 11.605469 C 25.8125 11.136719 25.902344 10.6875 26.082031 10.257812 C 26.261719 9.828125 26.515625 9.445312 26.847656 9.117188 C 27.179688 8.785156 27.5625 8.53125 27.996094 8.351562 C 28.429688 8.175781 28.882812 8.085938 29.351562 8.085938 C 33.085938 8.085938 34.074219 10.386719 34.074219 11.605469 L 31.710938 11.605469 C 31.699219 11.4375 31.523438 10.429688 29.351562 10.429688 C 29.195312 10.429688 29.042969 10.460938 28.898438 10.519531 C 28.753906 10.582031 28.628906 10.664062 28.515625 10.773438 C 28.40625 10.886719 28.320312 11.011719 28.261719 11.15625 C 28.203125 11.300781 28.171875 11.449219 28.171875 11.605469 C 28.171875 11.761719 28.203125 11.910156 28.261719 12.054688 C 28.320312 12.199219 28.40625 12.324219 28.515625 12.433594 C 28.628906 12.542969 28.753906 12.628906 28.898438 12.6875 C 29.042969 12.75 29.195312 12.777344 29.351562 12.777344 L 30.53125 12.777344 C 31 12.777344 31.453125 12.867188 31.886719 13.046875 C 32.320312 13.226562 32.703125 13.480469 33.035156 13.808594 C 33.367188 14.140625 33.625 14.519531 33.804688 14.949219 C 33.984375 15.382812 34.074219 15.832031 34.074219 16.296875 C 34.074219 16.765625 33.984375 17.214844 33.804688 17.644531 C 33.625 18.078125 33.367188 18.457031 33.035156 18.789062 C 32.703125 19.117188 32.320312 19.371094 31.886719 19.550781 C 31.453125 19.730469 31 19.820312 30.53125 19.820312 Z M 30.53125 19.820312 " fill-opacity="1" fill-rule="nonzero"/><path fill="#ffffff" d="M 21.089844 19.820312 C 20.621094 19.820312 20.167969 19.730469 19.734375 19.550781 C 19.300781 19.371094 18.917969 19.117188 18.585938 18.789062 C 18.253906 18.457031 18 18.078125 17.820312 17.644531 C 17.640625 17.214844 17.550781 16.765625 17.550781 16.296875 L 17.550781 15.125 L 19.910156 15.125 L 19.910156 16.296875 C 19.910156 16.453125 19.941406 16.605469 20 16.746094 C 20.058594 16.890625 20.144531 17.019531 20.253906 17.128906 C 20.367188 17.238281 20.492188 17.324219 20.640625 17.382812 C 20.785156 17.441406 20.933594 17.472656 21.089844 17.472656 C 21.246094 17.472656 21.398438 17.441406 21.542969 17.382812 C 21.6875 17.324219 21.8125 17.238281 21.925781 17.128906 C 22.035156 17.019531 22.121094 16.890625 22.179688 16.746094 C 22.242188 16.605469 22.269531 16.453125 22.269531 16.296875 L 22.269531 8.085938 L 24.632812 8.085938 L 24.632812 16.296875 C 24.632812 16.765625 24.542969 17.214844 24.363281 17.644531 C 24.183594 18.078125 23.925781 18.457031 23.59375 18.789062 C 23.261719 19.117188 22.878906 19.371094 22.445312 19.550781 C 22.011719 19.730469 21.558594 19.820312 21.089844 19.820312 Z M 21.089844 19.820312 " fill-opacity="1" fill-rule="nonzero"/><path fill="#ffffff" d="M 34.074219 60.886719 L 32.890625 60.886719 C 32.503906 60.886719 32.121094 60.847656 31.742188 60.773438 C 31.363281 60.699219 30.992188 60.585938 30.636719 60.4375 C 30.277344 60.289062 29.9375 60.109375 29.617188 59.894531 C 29.292969 59.683594 28.996094 59.4375 28.722656 59.167969 C 28.449219 58.894531 28.203125 58.597656 27.988281 58.277344 C 27.773438 57.957031 27.589844 57.621094 27.441406 57.265625 C 27.292969 56.910156 27.183594 56.542969 27.105469 56.164062 C 27.03125 55.785156 26.992188 55.40625 26.992188 55.019531 L 26.992188 51.5 C 26.941406 51.347656 26.6875 51.203125 26.507812 51.097656 C 25.945312 50.796875 25.433594 50.425781 24.972656 49.984375 C 24.863281 49.871094 24.777344 49.746094 24.71875 49.601562 C 24.65625 49.457031 24.628906 49.308594 24.628906 49.152344 C 24.628906 48.996094 24.65625 48.847656 24.71875 48.703125 C 24.777344 48.558594 24.863281 48.433594 24.972656 48.324219 C 25.433594 47.882812 25.945312 47.507812 26.507812 47.207031 C 26.679688 47.121094 26.839844 47.015625 26.992188 46.894531 L 26.992188 43.285156 C 26.992188 42.902344 27.03125 42.519531 27.105469 42.140625 C 27.183594 41.765625 27.292969 41.398438 27.441406 41.042969 C 27.589844 40.6875 27.773438 40.347656 27.988281 40.027344 C 28.203125 39.707031 28.449219 39.410156 28.722656 39.140625 C 28.996094 38.867188 29.292969 38.625 29.617188 38.410156 C 29.9375 38.195312 30.277344 38.015625 30.636719 37.867188 C 30.992188 37.71875 31.363281 37.609375 31.742188 37.53125 C 32.121094 37.457031 32.503906 37.417969 32.890625 37.417969 L 34.074219 37.417969 L 34.074219 39.765625 L 32.890625 39.765625 C 32.421875 39.765625 31.972656 39.855469 31.539062 40.035156 C 31.101562 40.210938 30.71875 40.46875 30.386719 40.796875 C 30.058594 41.128906 29.800781 41.507812 29.621094 41.9375 C 29.441406 42.371094 29.351562 42.820312 29.351562 43.285156 L 29.351562 46.804688 C 29.351562 47.3125 29.21875 47.777344 28.941406 48.199219 C 28.667969 48.625 28.300781 48.945312 27.839844 49.152344 C 28.300781 49.363281 28.667969 49.679688 28.941406 50.105469 C 29.21875 50.53125 29.351562 50.996094 29.351562 51.5 L 29.351562 55.019531 C 29.351562 55.488281 29.441406 55.9375 29.621094 56.367188 C 29.800781 56.796875 30.058594 57.179688 30.386719 57.507812 C 30.71875 57.839844 31.101562 58.09375 31.539062 58.273438 C 31.972656 58.449219 32.421875 58.539062 32.890625 58.539062 L 34.074219 58.539062 Z M 34.074219 60.886719 " fill-opacity="1" fill-rule="nonzero"/><path fill="#ffffff" d="M 51.773438 60.886719 L 50.59375 60.886719 L 50.59375 58.539062 L 51.773438 58.539062 C 52.246094 58.539062 52.695312 58.449219 53.128906 58.273438 C 53.5625 58.09375 53.945312 57.839844 54.277344 57.507812 C 54.609375 57.179688 54.867188 56.796875 55.046875 56.367188 C 55.226562 55.9375 55.316406 55.488281 55.316406 55.019531 L 55.316406 51.5 C 55.3125 50.996094 55.449219 50.53125 55.722656 50.105469 C 55.996094 49.679688 56.367188 49.363281 56.828125 49.152344 C 56.367188 48.945312 55.996094 48.625 55.722656 48.199219 C 55.449219 47.777344 55.3125 47.3125 55.316406 46.804688 L 55.316406 43.285156 C 55.316406 42.820312 55.226562 42.371094 55.046875 41.9375 C 54.867188 41.507812 54.609375 41.128906 54.277344 40.796875 C 53.945312 40.46875 53.5625 40.210938 53.128906 40.035156 C 52.695312 39.855469 52.246094 39.765625 51.773438 39.765625 L 50.59375 39.765625 L 50.59375 37.417969 L 51.773438 37.417969 C 52.164062 37.417969 52.546875 37.457031 52.925781 37.53125 C 53.304688 37.609375 53.675781 37.71875 54.03125 37.867188 C 54.390625 38.015625 54.730469 38.195312 55.050781 38.410156 C 55.375 38.625 55.671875 38.867188 55.945312 39.140625 C 56.21875 39.410156 56.464844 39.707031 56.679688 40.027344 C 56.894531 40.347656 57.078125 40.6875 57.226562 41.042969 C 57.375 41.398438 57.484375 41.765625 57.5625 42.140625 C 57.636719 42.519531 57.675781 42.902344 57.675781 43.285156 L 57.675781 46.804688 C 57.726562 46.960938 57.976562 47.101562 58.160156 47.207031 C 58.722656 47.507812 59.234375 47.882812 59.695312 48.324219 C 59.804688 48.433594 59.890625 48.558594 59.949219 48.703125 C 60.007812 48.847656 60.039062 48.996094 60.039062 49.152344 C 60.039062 49.308594 60.007812 49.457031 59.949219 49.601562 C 59.890625 49.746094 59.804688 49.871094 59.695312 49.984375 C 59.234375 50.425781 58.722656 50.796875 58.160156 51.097656 C 57.988281 51.1875 57.824219 51.292969 57.671875 51.414062 L 57.675781 55.019531 C 57.675781 55.40625 57.636719 55.785156 57.5625 56.164062 C 57.484375 56.542969 57.375 56.910156 57.226562 57.265625 C 57.078125 57.621094 56.894531 57.957031 56.679688 58.277344 C 56.464844 58.597656 56.21875 58.894531 55.945312 59.167969 C 55.671875 59.4375 55.375 59.683594 55.050781 59.894531 C 54.730469 60.109375 54.390625 60.289062 54.03125 60.4375 C 53.675781 60.585938 53.304688 60.699219 52.925781 60.773438 C 52.546875 60.847656 52.164062 60.886719 51.773438 60.886719 Z M 51.773438 60.886719 " fill-opacity="1" fill-rule="nonzero"/><path fill="#ffffff" d="M 44.695312 43.285156 C 44.695312 43.597656 44.632812 43.898438 44.515625 44.183594 C 44.394531 44.472656 44.222656 44.726562 44.003906 44.945312 C 43.78125 45.164062 43.527344 45.335938 43.238281 45.453125 C 42.949219 45.574219 42.648438 45.632812 42.332031 45.632812 C 42.019531 45.632812 41.71875 45.574219 41.429688 45.453125 C 41.140625 45.335938 40.886719 45.164062 40.664062 44.945312 C 40.441406 44.726562 40.273438 44.472656 40.152344 44.183594 C 40.03125 43.898438 39.972656 43.597656 39.972656 43.285156 C 39.972656 42.976562 40.03125 42.675781 40.152344 42.386719 C 40.273438 42.101562 40.441406 41.847656 40.664062 41.625 C 40.886719 41.40625 41.140625 41.238281 41.429688 41.117188 C 41.71875 41 42.019531 40.9375 42.332031 40.9375 C 42.648438 40.9375 42.949219 41 43.238281 41.117188 C 43.527344 41.238281 43.78125 41.40625 44.003906 41.625 C 44.222656 41.847656 44.394531 42.101562 44.515625 42.386719 C 44.632812 42.675781 44.695312 42.976562 44.695312 43.285156 Z M 44.695312 43.285156 " fill-opacity="1" fill-rule="nonzero"/><path fill="#ffffff" d="M 39.972656 47.980469 L 43.515625 47.980469 L 39.972656 56.195312 L 37.613281 56.195312 Z M 39.972656 47.980469 " fill-opacity="1" fill-rule="nonzero"/><path fill="#e89e00" d="M 32.371094 19.300781 C 32.050781 19.824219 31.621094 20.238281 31.082031 20.539062 C 30.546875 20.839844 29.96875 20.988281 29.351562 20.992188 C 25.621094 20.992188 24.632812 18.691406 24.632812 17.472656 L 26.070312 17.472656 C 26.554688 18.597656 27.816406 19.820312 30.53125 19.820312 C 31.195312 19.820312 31.808594 19.648438 32.371094 19.300781 Z M 32.371094 19.300781 " fill-opacity="1" fill-rule="nonzero"/><path fill="#e89e00" d="M 31.710938 16.296875 C 31.710938 16.453125 31.683594 16.605469 31.621094 16.746094 C 31.5625 16.890625 31.476562 17.019531 31.367188 17.128906 C 31.253906 17.238281 31.128906 17.324219 30.984375 17.382812 C 30.839844 17.441406 30.6875 17.472656 30.53125 17.472656 C 30.53125 17.316406 30.5 17.167969 30.441406 17.023438 C 30.382812 16.878906 30.296875 16.753906 30.1875 16.640625 C 30.074219 16.53125 29.949219 16.445312 29.804688 16.386719 C 29.660156 16.328125 29.507812 16.296875 29.351562 16.296875 L 28.171875 16.296875 L 28.171875 16.261719 L 27.816406 16.273438 L 27.804688 16.273438 C 27.4375 16.234375 27.085938 16.140625 26.746094 15.992188 C 26.410156 15.84375 26.101562 15.648438 25.828125 15.402344 C 25.550781 15.160156 25.320312 14.878906 25.132812 14.5625 C 24.945312 14.246094 24.808594 13.90625 24.726562 13.550781 C 24.648438 13.191406 24.621094 12.828125 24.65625 12.460938 C 24.6875 12.097656 24.777344 11.746094 24.921875 11.40625 C 25.0625 11.066406 25.257812 10.757812 25.496094 10.480469 C 25.738281 10.203125 26.015625 9.964844 26.332031 9.773438 C 25.996094 10.316406 25.824219 10.90625 25.816406 11.542969 C 25.804688 12.179688 25.953125 12.773438 26.265625 13.328125 C 26.582031 13.882812 27.011719 14.320312 27.566406 14.640625 C 28.117188 14.964844 28.710938 15.125 29.351562 15.125 L 30.53125 15.125 C 30.6875 15.125 30.839844 15.15625 30.984375 15.214844 C 31.128906 15.273438 31.253906 15.359375 31.367188 15.46875 C 31.476562 15.578125 31.5625 15.707031 31.621094 15.847656 C 31.683594 15.992188 31.710938 16.144531 31.710938 16.296875 Z M 31.710938 16.296875 " fill-opacity="1" fill-rule="nonzero"/><path fill="#e89e00" d="M 32.890625 12.777344 L 30.53125 12.777344 C 30.519531 12.613281 30.34375 11.605469 28.171875 11.605469 C 28.171875 11.449219 28.203125 11.300781 28.261719 11.15625 C 28.320312 11.011719 28.40625 10.886719 28.515625 10.773438 C 28.628906 10.664062 28.753906 10.582031 28.898438 10.519531 C 29.042969 10.460938 29.195312 10.429688 29.351562 10.429688 C 31.523438 10.429688 31.699219 11.441406 31.710938 11.605469 L 32.632812 11.605469 C 32.800781 11.976562 32.886719 12.371094 32.890625 12.777344 Z M 32.890625 12.777344 " fill-opacity="1" fill-rule="nonzero"/><path fill="#e89e00" d="M 22.269531 9.257812 L 22.269531 16.296875 C 22.269531 16.453125 22.242188 16.605469 22.179688 16.746094 C 22.121094 16.890625 22.035156 17.019531 21.925781 17.128906 C 21.8125 17.238281 21.6875 17.324219 21.542969 17.382812 C 21.398438 17.441406 21.246094 17.472656 21.089844 17.472656 L 21.089844 9.257812 Z M 22.269531 9.257812 " fill-opacity="1" fill-rule="nonzero"/><path fill="#e89e00" d="M 22.929688 19.300781 C 22.730469 19.628906 22.480469 19.917969 22.1875 20.164062 C 21.890625 20.410156 21.5625 20.601562 21.203125 20.742188 C 20.847656 20.882812 20.472656 20.964844 20.089844 20.984375 C 19.703125 21 19.324219 20.960938 18.953125 20.855469 C 18.582031 20.753906 18.238281 20.59375 17.917969 20.378906 C 17.597656 20.160156 17.324219 19.902344 17.089844 19.59375 C 16.855469 19.289062 16.679688 18.957031 16.554688 18.59375 C 16.433594 18.230469 16.371094 17.855469 16.371094 17.472656 L 16.371094 16.296875 L 17.550781 16.296875 C 17.550781 16.933594 17.710938 17.527344 18.035156 18.074219 C 18.359375 18.625 18.800781 19.054688 19.355469 19.363281 C 19.914062 19.675781 20.511719 19.828125 21.152344 19.816406 C 21.792969 19.804688 22.386719 19.632812 22.929688 19.300781 Z M 22.929688 19.300781 " fill-opacity="1" fill-rule="nonzero"/><path fill="#e89e00" d="M 55.316406 59.714844 C 54.757812 60.453125 54.0625 61.027344 53.234375 61.441406 C 52.402344 61.851562 51.523438 62.058594 50.59375 62.058594 L 49.414062 62.058594 L 49.414062 59.714844 L 50.59375 59.714844 L 50.59375 60.886719 L 51.773438 60.886719 C 53.089844 60.890625 54.269531 60.5 55.316406 59.714844 Z M 55.316406 59.714844 " fill-opacity="1" fill-rule="nonzero"/><path fill="#e89e00" d="M 55.5625 50.375 C 55.390625 50.730469 55.308594 51.105469 55.316406 51.5 L 55.316406 55.019531 C 55.3125 55.632812 55.160156 56.207031 54.859375 56.742188 C 54.558594 57.277344 54.140625 57.703125 53.617188 58.023438 C 53.960938 57.460938 54.136719 56.851562 54.136719 56.195312 L 54.136719 52.671875 C 54.128906 52.183594 54.257812 51.734375 54.515625 51.316406 C 54.773438 50.902344 55.121094 50.589844 55.5625 50.375 Z M 55.5625 50.375 " fill-opacity="1" fill-rule="nonzero"/><path fill="#e89e00" d="M 58.785156 50.714844 C 58.734375 50.886719 58.644531 51.035156 58.515625 51.160156 C 58.253906 51.414062 57.976562 51.644531 57.675781 51.851562 L 57.675781 51.417969 C 57.824219 51.292969 57.988281 51.1875 58.160156 51.101562 C 58.375 50.984375 58.585938 50.855469 58.785156 50.714844 Z M 58.785156 50.714844 " fill-opacity="1" fill-rule="nonzero"/><path fill="#e89e00" d="M 56.828125 49.152344 C 56.308594 49.421875 55.898438 49.804688 55.597656 50.304688 C 55.148438 50.089844 54.792969 49.769531 54.527344 49.351562 C 54.265625 48.933594 54.132812 48.476562 54.136719 47.980469 L 54.136719 44.460938 C 54.132812 43.992188 54.042969 43.542969 53.863281 43.113281 C 53.683594 42.683594 53.425781 42.304688 53.09375 41.972656 C 52.765625 41.644531 52.382812 41.390625 51.949219 41.210938 C 51.515625 41.03125 51.0625 40.941406 50.59375 40.9375 L 49.414062 40.9375 L 49.414062 38.59375 L 50.59375 38.59375 L 50.59375 39.765625 L 51.773438 39.765625 C 52.246094 39.765625 52.695312 39.859375 53.128906 40.035156 C 53.5625 40.214844 53.945312 40.46875 54.277344 40.800781 C 54.605469 41.128906 54.863281 41.511719 55.042969 41.941406 C 55.222656 42.371094 55.3125 42.820312 55.316406 43.285156 L 55.316406 46.804688 C 55.3125 47.3125 55.449219 47.777344 55.722656 48.199219 C 55.996094 48.625 56.363281 48.941406 56.828125 49.152344 Z M 56.828125 49.152344 " fill-opacity="1" fill-rule="nonzero"/><path fill="#e89e00" d="M 32.890625 60.886719 L 32.890625 62.058594 L 31.710938 62.058594 C 31.324219 62.058594 30.941406 62.023438 30.5625 61.949219 C 30.179688 61.871094 29.8125 61.761719 29.453125 61.613281 C 29.097656 61.464844 28.753906 61.285156 28.433594 61.070312 C 28.113281 60.859375 27.8125 60.613281 27.539062 60.34375 C 27.265625 60.070312 27.019531 59.773438 26.804688 59.453125 C 26.589844 59.132812 26.410156 58.792969 26.261719 58.4375 C 26.113281 58.082031 26 57.714844 25.925781 57.339844 C 25.847656 56.960938 25.8125 56.578125 25.8125 56.195312 L 25.8125 52.671875 C 25.765625 52.519531 25.503906 52.378906 25.328125 52.273438 C 24.765625 51.972656 24.253906 51.597656 23.792969 51.160156 C 23.683594 51.050781 23.597656 50.921875 23.539062 50.777344 C 23.476562 50.632812 23.449219 50.484375 23.449219 50.328125 C 23.449219 50.171875 23.476562 50.019531 23.539062 49.875 C 23.597656 49.730469 23.683594 49.605469 23.792969 49.492188 C 24.074219 49.222656 24.375 48.980469 24.703125 48.765625 C 24.625 48.976562 24.609375 49.195312 24.65625 49.414062 C 24.707031 49.636719 24.8125 49.828125 24.972656 49.984375 C 25.433594 50.425781 25.945312 50.796875 26.507812 51.101562 C 26.683594 51.207031 26.945312 51.347656 26.992188 51.5 L 26.992188 55.019531 C 26.992188 55.40625 27.027344 55.785156 27.105469 56.164062 C 27.179688 56.542969 27.292969 56.910156 27.441406 57.265625 C 27.589844 57.621094 27.769531 57.960938 27.984375 58.28125 C 28.199219 58.601562 28.445312 58.894531 28.71875 59.167969 C 28.992188 59.441406 29.292969 59.683594 29.613281 59.898438 C 29.9375 60.113281 30.277344 60.292969 30.632812 60.441406 C 30.992188 60.585938 31.359375 60.699219 31.742188 60.773438 C 32.121094 60.847656 32.503906 60.886719 32.890625 60.886719 Z M 32.890625 60.886719 " fill-opacity="1" fill-rule="nonzero"/><path fill="#e89e00" d="M 28.171875 39.765625 C 27.378906 40.808594 26.984375 41.980469 26.992188 43.285156 L 26.992188 46.886719 C 26.84375 47.011719 26.679688 47.117188 26.507812 47.207031 C 26.308594 47.324219 26.070312 47.464844 25.8125 47.628906 L 25.8125 44.460938 C 25.8125 43.535156 26.019531 42.660156 26.433594 41.835938 C 26.851562 41.011719 27.429688 40.320312 28.171875 39.765625 Z M 28.171875 39.765625 " fill-opacity="1" fill-rule="nonzero"/><path fill="#e89e00" d="M 32.890625 39.765625 L 32.890625 40.9375 L 31.710938 40.9375 C 31.050781 40.9375 30.4375 41.109375 29.871094 41.457031 C 30.191406 40.933594 30.621094 40.519531 31.160156 40.21875 C 31.699219 39.917969 32.273438 39.769531 32.890625 39.765625 Z M 32.890625 39.765625 " fill-opacity="1" fill-rule="nonzero"/><path fill="#e89e00" d="M 43.300781 45.421875 C 43.222656 45.597656 43.125 45.757812 43.007812 45.910156 C 42.890625 46.058594 42.757812 46.191406 42.605469 46.3125 C 42.457031 46.429688 42.292969 46.527344 42.121094 46.605469 C 41.945312 46.683594 41.761719 46.742188 41.574219 46.777344 C 41.386719 46.808594 41.199219 46.824219 41.007812 46.8125 C 40.816406 46.800781 40.628906 46.765625 40.445312 46.710938 C 40.261719 46.652344 40.089844 46.574219 39.925781 46.476562 C 39.761719 46.378906 39.609375 46.261719 39.476562 46.128906 C 39.339844 45.992188 39.222656 45.84375 39.125 45.679688 C 39.023438 45.519531 38.945312 45.347656 38.890625 45.164062 C 38.832031 44.980469 38.800781 44.796875 38.789062 44.605469 C 38.777344 44.414062 38.789062 44.226562 38.824219 44.039062 C 38.859375 43.851562 38.914062 43.671875 38.996094 43.5 C 39.074219 43.324219 39.171875 43.164062 39.292969 43.015625 C 39.410156 42.867188 39.546875 42.730469 39.695312 42.617188 C 39.847656 42.5 40.011719 42.402344 40.1875 42.324219 C 40.042969 42.628906 39.96875 42.949219 39.972656 43.285156 C 39.972656 43.597656 40.035156 43.894531 40.15625 44.183594 C 40.273438 44.46875 40.445312 44.722656 40.667969 44.945312 C 40.886719 45.164062 41.144531 45.332031 41.429688 45.453125 C 41.71875 45.570312 42.019531 45.632812 42.332031 45.632812 C 42.671875 45.636719 42.996094 45.566406 43.300781 45.421875 Z M 43.300781 45.421875 " fill-opacity="1" fill-rule="nonzero"/><path fill="#e89e00" d="M 37.613281 56.195312 L 39.300781 56.195312 L 38.792969 57.367188 L 36.433594 57.367188 L 38.792969 49.152344 L 39.632812 49.152344 Z M 37.613281 56.195312 " fill-opacity="1" fill-rule="nonzero"/></svg>