<svg xmlns="http://www.w3.org/2000/svg" xmlns:xlink="http://www.w3.org/1999/xlink" width="100" zoomAndPan="magnify" viewBox="0 0 75 74.999997" height="100" preserveAspectRatio="xMidYMid meet" version="1.0"><defs><clipPath id="7f2264565f"><path d="M 0 11.25 L 75 11.25 L 75 63.75 L 0 63.75 Z M 0 11.25 " clip-rule="nonzero"/></clipPath></defs><g clip-path="url(#7f2264565f)"><path fill="#38bdf8" d="M 38.832031 63.554688 C 28.691406 63.554688 23.8125 58.695312 20.25 55.148438 C 18.9375 53.511719 17.3125 52.296875 15.367188 51.507812 C 13.234375 50.984375 10.355469 50.949219 7.054688 55.265625 C 6.792969 55.609375 6.484375 55.894531 6.125 56.128906 C 5.765625 56.363281 5.375 56.53125 4.957031 56.628906 C 4.539062 56.730469 4.117188 56.753906 3.691406 56.710938 C 3.265625 56.664062 2.859375 56.546875 2.472656 56.359375 C 2.085938 56.171875 1.742188 55.925781 1.441406 55.621094 C 1.140625 55.316406 0.902344 54.96875 0.71875 54.578125 C 0.539062 54.191406 0.429688 53.78125 0.386719 53.355469 C 0.347656 52.925781 0.382812 52.507812 0.488281 52.089844 C 3.230469 41.328125 10.484375 35.640625 21.464844 35.640625 C 31.605469 35.640625 36.484375 40.496094 40.046875 44.042969 C 41.359375 45.679688 42.984375 46.894531 44.929688 47.6875 C 47.066406 48.207031 49.941406 48.246094 53.246094 43.925781 C 53.503906 43.585938 53.816406 43.296875 54.175781 43.0625 C 54.535156 42.828125 54.921875 42.664062 55.339844 42.5625 C 55.757812 42.464844 56.179688 42.4375 56.605469 42.484375 C 57.03125 42.53125 57.4375 42.648438 57.824219 42.832031 C 58.210938 43.019531 58.554688 43.265625 58.855469 43.574219 C 59.15625 43.878906 59.398438 44.226562 59.578125 44.613281 C 59.757812 45.003906 59.871094 45.410156 59.910156 45.839844 C 59.949219 46.265625 59.917969 46.6875 59.808594 47.101562 C 57.066406 57.867188 49.8125 63.554688 38.832031 63.554688 Z M 15.585938 43.976562 C 16.109375 44.050781 16.628906 44.152344 17.140625 44.277344 C 18.769531 44.792969 20.296875 45.527344 21.71875 46.476562 C 23.140625 47.429688 24.398438 48.558594 25.496094 49.871094 C 28.722656 53.082031 31.765625 56.109375 38.832031 56.109375 C 40.84375 56.152344 42.804688 55.855469 44.710938 55.21875 C 44.1875 55.144531 43.671875 55.042969 43.15625 54.914062 C 41.527344 54.402344 40 53.667969 38.578125 52.714844 C 37.15625 51.765625 35.898438 50.632812 34.800781 49.320312 C 31.574219 46.109375 28.53125 43.082031 21.464844 43.082031 C 19.453125 43.039062 17.496094 43.339844 15.585938 43.976562 Z M 53.722656 39.359375 C 43.578125 39.359375 38.699219 34.5 35.132812 30.949219 C 33.824219 29.316406 32.199219 28.101562 30.257812 27.3125 C 28.121094 26.789062 25.246094 26.753906 21.941406 31.074219 C 21.679688 31.414062 21.371094 31.703125 21.011719 31.9375 C 20.652344 32.171875 20.265625 32.335938 19.847656 32.4375 C 19.429688 32.535156 19.007812 32.5625 18.582031 32.515625 C 18.152344 32.46875 17.746094 32.351562 17.363281 32.167969 C 16.976562 31.980469 16.632812 31.734375 16.332031 31.425781 C 16.03125 31.121094 15.789062 30.773438 15.609375 30.386719 C 15.425781 29.996094 15.316406 29.589844 15.277344 29.160156 C 15.238281 28.734375 15.269531 28.3125 15.375 27.898438 C 18.117188 17.132812 25.375 11.445312 36.355469 11.445312 C 46.496094 11.445312 51.371094 16.300781 54.933594 19.851562 C 56.246094 21.488281 57.875 22.703125 59.816406 23.492188 C 61.953125 24.015625 64.828125 24.050781 68.132812 19.734375 C 68.394531 19.390625 68.703125 19.105469 69.0625 18.871094 C 69.421875 18.636719 69.8125 18.46875 70.226562 18.371094 C 70.644531 18.269531 71.066406 18.246094 71.492188 18.289062 C 71.921875 18.335938 72.328125 18.453125 72.710938 18.640625 C 73.097656 18.828125 73.441406 19.074219 73.742188 19.378906 C 74.042969 19.683594 74.285156 20.03125 74.464844 20.421875 C 74.648438 20.808594 74.757812 21.21875 74.796875 21.644531 C 74.835938 22.074219 74.804688 22.492188 74.699219 22.910156 C 71.957031 33.671875 64.699219 39.359375 53.722656 39.359375 Z M 30.472656 19.78125 C 30.996094 19.855469 31.515625 19.957031 32.027344 20.085938 C 33.660156 20.597656 35.1875 21.332031 36.605469 22.285156 C 38.027344 23.234375 39.289062 24.367188 40.382812 25.679688 C 43.46875 28.753906 46.65625 31.917969 53.722656 31.917969 C 55.730469 31.960938 57.691406 31.660156 59.601562 31.023438 C 59.078125 30.949219 58.558594 30.847656 58.046875 30.722656 C 56.414062 30.207031 54.890625 29.472656 53.46875 28.523438 C 52.046875 27.570312 50.785156 26.441406 49.691406 25.128906 C 46.460938 21.917969 43.421875 18.890625 36.355469 18.890625 C 34.34375 18.847656 32.382812 19.144531 30.472656 19.78125 Z M 30.472656 19.78125 " fill-opacity="1" fill-rule="nonzero"/></g></svg>